<svg xmlns="http://www.w3.org/2000/svg" width="100" height="100" fill="none" viewBox="0 0 100 100"><circle cx="50" cy="50" r="50" fill="url(#paint0_linear)"/><ellipse cx="50.094" cy="49.907" fill="#000" rx="45.412" ry="45.412"/><path fill="url(#paint1_linear)" d="M55.4882 34.9582C44.0692 35.0824 31.5617 43.851 27.5519 54.5436C36.0294 48.4451 44.507 52.9661 53.6717 53.8546C62.8364 54.7432 61.4314 54.0889 68.9038 54.094C72.9136 43.4014 66.9072 34.8341 55.4882 34.9582Z"/><path fill="url(#paint2_linear)" d="M40.9031 76.6676C29.6854 76.6506 23.6791 68.0832 27.4875 57.5318C38.8915 50.3477 46.2945 58.4876 68.1104 57.5933C64.302 68.1447 52.1208 76.6846 40.9031 76.6676Z"/><path fill="url(#paint3_linear)" d="M55.4884 34.9582C44.0695 35.0824 31.562 43.851 27.5522 54.5436C36.0296 48.4451 44.5072 52.9661 53.6719 53.8546C62.8366 54.7432 61.4316 54.0888 68.904 54.094C72.9138 43.4014 66.9074 34.8341 55.4884 34.9582Z"/><path fill="url(#paint4_linear)" d="M40.9034 76.6676C29.6857 76.6506 23.6793 68.0832 27.4878 57.5318C38.8917 50.3477 46.2947 58.4876 68.1107 57.5933C64.3022 68.1447 52.1211 76.6846 40.9034 76.6676Z"/><path stroke="url(#paint5_linear)" stroke-width="2" d="M66.7443 46.8791C71.2855 42.3379 69.9286 39.405 65.5917 28.8404"/><path fill="url(#paint6_linear)" d="M68.3248 34.2634C73.934 35.8786 79.7905 32.6409 81.4057 27.0317V27.0317L80.4295 26.7506C74.8203 25.1354 68.9638 28.3732 67.3486 33.9823V33.9823L68.3248 34.2634Z"/><path fill="url(#paint7_linear)" d="M67.9122 30.9074C68.6739 25.1202 64.6 19.8113 58.8128 19.0496V19.0496L58.6802 20.0568C57.9185 25.844 61.9925 31.1529 67.7796 31.9146V31.9146L67.9122 30.9074Z"/><defs><linearGradient id="paint0_linear" x1="50" x2="50" y1="0" y2="100" gradientUnits="userSpaceOnUse"><stop stop-color="#13ECAB"/><stop offset="1" stop-color="#C834F7"/></linearGradient><linearGradient id="paint1_linear" x1="46.543" x2="46.283" y1="62.914" y2="33.513" gradientUnits="userSpaceOnUse"><stop stop-color="#C834F7"/><stop offset=".385" stop-color="#718BD3"/><stop offset=".849" stop-color="#13ECAB"/></linearGradient><linearGradient id="paint2_linear" x1="40.903" x2="41.116" y1="76.668" y2="57.489" gradientUnits="userSpaceOnUse"><stop offset="0" stop-color="#C833F7"/><stop offset=".964" stop-color="#7E7ED8"/></linearGradient><linearGradient id="paint3_linear" x1="46.543" x2="46.283" y1="62.914" y2="33.513" gradientUnits="userSpaceOnUse"><stop stop-color="#C834F7"/><stop offset=".385" stop-color="#718BD3"/><stop offset=".849" stop-color="#13ECAB"/></linearGradient><linearGradient id="paint4_linear" x1="40.904" x2="41.116" y1="76.668" y2="57.489" gradientUnits="userSpaceOnUse"><stop offset="0" stop-color="#C833F7"/><stop offset=".964" stop-color="#7E7ED8"/></linearGradient><linearGradient id="paint5_linear" x1="68.942" x2="60.127" y1="35.247" y2="54.186" gradientUnits="userSpaceOnUse"><stop stop-color="#13ECAB"/><stop offset=".343" stop-color="#31CDB8"/><stop offset=".488" stop-color="#4DB1C4"/><stop offset=".855" stop-color="#817CDA"/></linearGradient><linearGradient id="paint6_linear" x1="74.743" x2="64.968" y1="29.238" y2="40.648" gradientUnits="userSpaceOnUse"><stop stop-color="#13ECAB"/><stop offset="1" stop-color="#7E7ED8"/></linearGradient><linearGradient id="paint7_linear" x1="61.986" x2="74.725" y1="25.31" y2="33.276" gradientUnits="userSpaceOnUse"><stop stop-color="#13ECAB"/><stop offset="1" stop-color="#7E7ED8"/></linearGradient></defs></svg>