<svg xmlns="http://www.w3.org/2000/svg" xmlns:svg="http://www.w3.org/2000/svg" id="svg12" width="100" height="100" fill="none" version="1.1" viewBox="0 0 100 100"><metadata id="metadata18"/><rect id="rect2" width="100" height="100" x="0" y="0" fill="#512bd4" style="stroke-width:.219229"/><path id="path4" fill="#fff" d="m 17.817627,63.868828 c -0.706841,0 -1.307662,-0.235453 -1.802463,-0.706577 -0.494801,-0.483183 -0.742203,-1.056907 -0.742203,-1.721172 0,-0.676543 0.247402,-1.256186 0.742203,-1.739368 0.494801,-0.483182 1.095622,-0.724773 1.802463,-0.724773 0.718634,0 1.325351,0.241591 1.820152,0.724773 0.506575,0.483182 0.759872,1.062825 0.759872,1.739368 0,0.664265 -0.253297,1.237989 -0.759872,1.721172 -0.494801,0.471124 -1.101518,0.706577 -1.820152,0.706577 z" style="stroke-width:.219229"/><path id="path6" fill="#fff" d="M 46.074834,63.470269 H 41.48022 L 29.375456,44.373394 c -0.306265,-0.483182 -0.559693,-0.98456 -0.75985,-1.503916 h -0.106107 c 0.09427,0.555748 0.141403,1.745506 0.141403,3.569278 V 63.470269 H 24.586385 V 37.488267 h 4.894959 l 11.698532,18.643947 c 0.494802,0.773223 0.812903,1.304637 0.954307,1.594457 h 0.07058 c -0.117717,-0.68838 -0.17669,-1.854025 -0.17669,-3.496932 V 37.488267 h 4.046758 z" style="stroke-width:.219229"/><path id="path8" fill="#fff" d="M 65.867325,63.470269 H 51.641952 V 37.488267 h 13.659979 v 3.66004 h -9.454057 v 7.356031 h 8.711965 v 3.641843 h -8.711965 v 7.682244 h 10.019451 z" style="stroke-width:.219229"/><path id="path10" fill="#fff" d="M 86.084246,41.148307 H 78.803627 V 63.470269 H 74.597708 V 41.148307 h -7.262859 v -3.66004 h 18.749397 z" style="stroke-width:.219229"/></svg>