<svg xmlns="http://www.w3.org/2000/svg" xmlns:xlink="http://www.w3.org/1999/xlink" id="圖層_1" x="0" y="0" version="1.1" viewBox="0 0 100 100" xml:space="preserve" style="enable-background:new 0 0 100 100"><style type="text/css">.st0{fill:#4e7b99}.st1{fill:#1f344f}</style><g><g><rect width="6.7" height="40.48" x="22.77" y="48.86" class="st0" transform="matrix(0.7071 -0.7071 0.7071 0.7071 -41.2124 38.7072)"/></g><g><rect width="6.7" height="40.48" x="70.15" y="10.66" class="st0" transform="matrix(0.7071 -0.7071 0.7071 0.7071 -0.3247 61.023)"/></g><g><polygon points="46.65 26.74 53.35 26.74 53.35 2.81 46.65 2.81 .85 48.61 5.59 53.35 46.65 12.29" class="st1"/></g><g><polygon points="94.41 46.65 53.35 87.71 53.35 73.26 46.65 73.26 46.65 97.19 53.35 97.19 99.15 51.39" class="st1"/></g><g><rect width="16.44" height="2.7" x="45.21" y="45.11" class="st0"/></g><g><rect width="16.44" height="2.7" x="45.21" y="52.19" class="st0"/></g><g><polygon points="63.01 69.82 36.78 69.82 36.78 30.18 63.01 30.18 63.01 39.97 45.21 39.97 45.21 37.27 60.3 37.27 60.3 32.89 39.48 32.89 39.48 67.11 60.3 67.11 60.3 62.73 45.21 62.73 45.21 60.03 63.01 60.03" class="st1"/></g></g></svg>