<svg xmlns="http://www.w3.org/2000/svg" xmlns:xlink="http://www.w3.org/1999/xlink" width="100" height="100" version="1.1" viewBox="0 0 100 100"><title>Flux Logo New</title><defs><radialGradient id="radialGradient-1" cx="50%" cy="0%" r="248.533%" fx="50%" fy="0%" gradientTransform="translate(0.500000,0.000000),scale(1.000000,0.393939),rotate(90.000000),translate(-0.500000,-0.000000)"><stop offset="0%" stop-color="#FE84FC"/><stop offset="100%" stop-color="#2ED1FF"/></radialGradient></defs><g id="logos" fill="none" fill-rule="evenodd" stroke="none" stroke-width="1"><g id="Group" fill-rule="nonzero" transform="translate(0.000000, -829.000000)"><g id="Group-2" transform="translate(0.000000, 251.000000)"><g id="Flux-Logo-New"><g transform="translate(0.000000, 578.000000) translate(50.000000, 50.000000) rotate(90.000000) translate(-50.000000, -50.000000)"><circle id="Oval" cx="50" cy="50" r="50" fill="#FFF"/><path id="Rectangle" fill="#0F0E25" d="M50,35.7142857 C55.1283584,35.7142857 59.2857143,39.8716416 59.2857143,45 L59.2857143,73.5714286 C59.2857143,78.699787 55.1283584,82.8571429 50,82.8571429 C44.8716416,82.8571429 40.7142857,78.699787 40.7142857,73.5714286 L40.7142857,45 C40.7142857,39.8716416 44.8716416,35.7142857 50,35.7142857 Z" transform="translate(50.000000, 59.285714) rotate(90.000000) translate(-50.000000, -59.285714)"/><path id="Rectangle" fill="#0F0E25" d="M35.7142857,21.4285714 C40.8426441,21.4285714 45,25.5859274 45,30.7142857 L45,68.5714286 L45,68.5714286 L35.7142857,68.5714286 C30.5859274,68.5714286 26.4285714,64.4140726 26.4285714,59.2857143 L26.4285714,30.7142857 C26.4285714,25.5859274 30.5859274,21.4285714 35.7142857,21.4285714 Z"/><path id="Rectangle" fill="url(#radialGradient-1)" d="M45,31.4285714 L54.2857143,31.4285714 C59.4140726,31.4285714 63.5714286,35.5859274 63.5714286,40.7142857 L63.5714286,69.2857143 C63.5714286,74.4140729 59.4140726,78.5714286 54.2857143,78.5714286 C49.1573559,78.5714286 45,74.4140729 45,69.2857143 L45,31.4285714 L45,31.4285714 Z"/></g></g></g></g></g></svg>