<svg xmlns="http://www.w3.org/2000/svg" xmlns:xlink="http://www.w3.org/1999/xlink" width="100" height="100" version="1.1" viewBox="0 0 100 100"><title>Square</title><defs><linearGradient id="linearGradient-1" x1="50%" x2="50%" y1="0%" y2="100%"><stop offset="0%" stop-color="#FF0017"/><stop offset="100%" stop-color="#B7001C"/></linearGradient></defs><g id="Square" fill="none" fill-rule="evenodd" stroke="none" stroke-width="1"><rect id="Rectangle-Black" width="100" height="100" x="0" y="0" fill="#000"/><g id="MEAN_Vertical_OnBlack" fill="url(#linearGradient-1)" transform="translate(15.000000, 16.000000)"><path id="Fill-1-Copy-2" d="M69.0654326,0 L35.5018758,8.75814484 L1.93831901,0 L0,15.2577917 L13.894621,50.13767 L35.5043768,68 L57.1085054,50.13767 L71,15.2577917 L69.0654326,0 Z M62.8596854,8.29757873 L63.7775733,15.5299444 L51.5711656,46.1779098 L43.790378,52.6098263 L54.7800215,18.2422355 L40.7334613,21.8036183 L38.1598739,52.5248556 L35.5006253,59.4185697 L32.8420019,52.5248556 L30.2671639,21.8036183 L16.221229,18.2422355 L27.2108726,52.6098263 L19.4300849,46.1779098 L7.22430252,15.5299444 L8.14219036,8.29757873 L35.5006253,15.4400478 L62.8596854,8.29757873 Z"/></g></g></svg>