<svg xmlns="http://www.w3.org/2000/svg" xmlns:svg="http://www.w3.org/2000/svg" id="svg8" width="337.318" height="337.318" version="1.1" viewBox="0 0 89.249 89.249"><metadata id="metadata5"/><g id="layer1" transform="translate(-59.4046,-29.459)"><g id="g844" transform="translate(9.101565,2.0478185)"><g id="g849" transform="translate(-15.033567,-2.6458333)"><g id="text835" aria-label="Nd" style="font-style:normal;font-variant:normal;font-weight:600;font-stretch:normal;font-size:47.6757px;line-height:1.25;font-family:Poppins;-inkscape-font-specification:'Poppins Semi-Bold';fill:#000;fill-opacity:1;stroke:none;stroke-width:1.19189"><path style="font-style:normal;font-variant:normal;font-weight:600;font-stretch:normal;font-family:Poppins;-inkscape-font-specification:'Poppins Semi-Bold';stroke-width:1.19189" id="path891" d="m 108.02113,92.106819 h -6.6746 L 86.233333,69.270158 V 92.106819 H 79.558735 V 58.781504 h 6.674598 L 101.34653,81.665841 V 58.781504 h 6.6746 z"/><path style="font-style:normal;font-variant:normal;font-weight:600;font-stretch:normal;font-family:Poppins;-inkscape-font-specification:'Poppins Semi-Bold';stroke-width:1.19189" id="path893" d="m 112.85425,78.805299 q 0,-4.004759 1.5733,-7.10368 1.62098,-3.098921 4.38617,-4.76757 2.76519,-1.66865 6.15016,-1.66865 2.57449,0 4.9106,1.144217 2.33611,1.096541 3.7187,2.955894 V 56.8268 h 6.76995 v 35.280019 h -6.76995 v -3.909407 q -1.23956,1.954703 -3.48032,3.146596 -2.24076,1.191892 -5.19665,1.191892 -3.3373,0 -6.10249,-1.716325 -2.76519,-1.716325 -4.38617,-4.815246 -1.5733,-3.146596 -1.5733,-7.19903 z m 20.78661,0.09535 q 0,-2.431461 -0.95351,-4.147786 -0.95352,-1.764001 -2.57449,-2.669839 -1.62098,-0.953514 -3.48033,-0.953514 -1.85935,0 -3.43265,0.905838 -1.5733,0.905838 -2.57449,2.669839 -0.95351,1.716325 -0.95351,4.100111 0,2.383785 0.95351,4.195461 1.00119,1.764001 2.57449,2.717515 1.62098,0.953514 3.43265,0.953514 1.85935,0 3.48033,-0.905838 1.62097,-0.953514 2.57449,-2.669839 0.95351,-1.764001 0.95351,-4.195462 z"/></g><path id="rect837" d="M 67.627602,32.348015 H 152.29427 V 117.01468 H 67.627602 Z" style="fill:#000;fill-opacity:0;stroke:#000;stroke-width:4.582;stroke-miterlimit:4;stroke-dasharray:none"/></g></g></g></svg>