<svg xmlns="http://www.w3.org/2000/svg" xmlns:xlink="http://www.w3.org/1999/xlink" width="96" height="95" version="1.1" viewBox="0 0 96 95"><title>Soda</title><defs><linearGradient id="linearGradient-1" x1="18.437%" x2="81.563%" y1="58.056%" y2="42.335%"><stop offset="0%" stop-color="#D53AE9"/><stop offset="100%" stop-color="#1BFBBB"/></linearGradient></defs><g id="Page-1" fill="none" fill-rule="evenodd" stroke="none" stroke-width="1"><g id="soda" transform="translate(0.521810, 0.727245)"><rect id="Rectangle" width="93.75" height="93.75" x=".816" y=".018" fill="#000"/><path id="Shape" fill="url(#linearGradient-1)" fill-rule="nonzero" d="M21.4781904,72.700141 L27.5543064,75.2177656 L27.5543064,15.7915792 L21.4781904,13.2727545 L21.4781904,72.700066 L21.4781904,72.700141 Z M33.6307599,77.8117763 L39.7079633,80.3296634 L74.7563374,54.4315939 L74.7563374,42.7482525 L68.6802214,40.2304779 L68.6802214,51.9138567 L39.7079633,73.3224786 L39.7079633,20.9037769 L33.6307599,18.3849523 L33.6307599,77.8118888 L33.6307599,77.8117763 Z M56.526227,46.801434 L45.2497525,55.1347048 L45.0781934,62.2689371 L62.6033179,49.3193586 L62.6033179,37.6348923 L56.526227,35.1169677 L56.526227,46.801434 L56.526227,46.801434 Z"/></g></g></svg>