<svg xmlns="http://www.w3.org/2000/svg" xmlns:xlink="http://www.w3.org/1999/xlink" id="layer1" x="0" y="0" version="1.1" viewBox="0 0 100 100" xml:space="preserve" style="enable-background:new 0 0 100 100"><style type="text/css">.st0{fill:none}.st1{clip-path:url(#SVGID_2_)}.st2{fill:url(#SVGID_3_)}.st3{fill:url(#SVGID_4_)}.st4{fill:url(#SVGID_5_)}.st5{fill:url(#SVGID_6_)}.st6{fill:url(#SVGID_7_)}.st7{fill:url(#SVGID_8_)}.st8{fill:url(#SVGID_9_)}.st9{fill:url(#SVGID_10_)}.st10{fill:url(#SVGID_11_)}.st11{fill:url(#SVGID_12_)}.st12{fill:url(#SVGID_13_)}.st13{fill:url(#SVGID_14_)}.st14{fill:url(#SVGID_15_)}.st15{fill:url(#SVGID_16_)}.st16{fill:url(#SVGID_17_)}.st17{fill:url(#SVGID_18_)}.st18{fill:url(#SVGID_19_)}.st19{fill:url(#SVGID_20_)}.st20{fill:url(#SVGID_21_)}.st21{fill:url(#SVGID_22_)}.st22{fill:url(#SVGID_23_)}.st23{fill:url(#SVGID_24_)}.st24{clip-path:url(#SVGID_26_)}.st25{fill:url(#SVGID_27_)}.st26{fill:url(#SVGID_28_)}.st27{fill:url(#SVGID_29_)}.st28{fill:url(#SVGID_30_)}.st29{fill:url(#SVGID_31_)}.st30{fill:url(#SVGID_32_)}.st31{fill:url(#SVGID_33_)}.st32{fill:url(#SVGID_34_)}.st33{fill:url(#SVGID_35_)}.st34{fill:url(#SVGID_36_)}.st35{fill:url(#SVGID_37_)}.st36{fill:url(#SVGID_38_)}.st37{fill:url(#SVGID_39_)}.st38{fill:url(#SVGID_40_)}.st39{fill:url(#SVGID_41_)}.st40{fill:url(#SVGID_42_)}.st41{fill:url(#SVGID_43_)}.st42{fill:url(#SVGID_44_)}.st43{fill:url(#SVGID_45_)}.st44{fill:url(#SVGID_46_)}.st45{fill:url(#SVGID_47_)}.st46{fill:url(#SVGID_48_)}</style><g><g><g><path d="M38.56,19.97c-7.95-1.6-14.43-0.02-19.46,2.67c-4,5.94-6.34,13.09-6.34,20.8C12.76,64,29.43,80.68,50,80.68 S87.24,64,87.24,43.43c0-6.2-1.52-12.05-4.2-17.2C64.99,36.44,58.2,23.92,38.56,19.97z" class="st0"/></g><g><defs><path id="SVGID_1_" d="M83.04,26.23c-18.05,10.21-24.84-2.31-44.48-6.27c-7.95-1.6-14.43-0.02-19.46,2.67 c-4,5.94-6.34,13.09-6.34,20.8c0,13.48,7.17,25.3,17.9,31.83c4.22-3.96,10.95-8.67,19.19-8.78c7.77-0.1,17.82,7.81,28.04,1.65 c5.83-6.57,9.36-15.22,9.36-24.69C87.24,37.23,85.73,31.38,83.04,26.23z M50,56.53c-7.23,0-13.09-5.86-13.09-13.09 S42.77,30.34,50,30.34s13.09,5.86,13.09,13.09S57.23,56.53,50,56.53z"/></defs><clipPath id="SVGID_2_"><use xlink:href="#SVGID_1_" style="overflow:visible"/></clipPath><g class="st1"><g><linearGradient id="SVGID_3_" x1="14.504" x2="14.504" y1="32.49" y2="80.919" gradientUnits="userSpaceOnUse"><stop offset="0" style="stop-color:#00ffa1"/><stop offset="1" style="stop-color:#0083ff"/></linearGradient><rect width=".74" height="90.92" x="14.14" y="-7.85" class="st2"/></g><g><linearGradient id="SVGID_4_" x1="18.001" x2="18.001" y1="32.49" y2="80.919" gradientUnits="userSpaceOnUse"><stop offset="0" style="stop-color:#00ffa1"/><stop offset="1" style="stop-color:#0083ff"/></linearGradient><rect width=".74" height="90.92" x="17.63" y="-7.85" class="st3"/></g><g><linearGradient id="SVGID_5_" x1="21.498" x2="21.498" y1="32.49" y2="80.919" gradientUnits="userSpaceOnUse"><stop offset="0" style="stop-color:#00ffa1"/><stop offset="1" style="stop-color:#0083ff"/></linearGradient><rect width=".74" height="90.92" x="21.13" y="-7.85" class="st4"/></g><g><linearGradient id="SVGID_6_" x1="24.995" x2="24.995" y1="32.49" y2="80.919" gradientUnits="userSpaceOnUse"><stop offset="0" style="stop-color:#00ffa1"/><stop offset="1" style="stop-color:#0083ff"/></linearGradient><rect width=".74" height="90.92" x="24.63" y="-7.85" class="st5"/></g><g><linearGradient id="SVGID_7_" x1="28.492" x2="28.492" y1="32.49" y2="80.919" gradientUnits="userSpaceOnUse"><stop offset="0" style="stop-color:#00ffa1"/><stop offset="1" style="stop-color:#0083ff"/></linearGradient><rect width=".74" height="90.92" x="28.12" y="-7.85" class="st6"/></g><g><linearGradient id="SVGID_8_" x1="31.989" x2="31.989" y1="32.49" y2="80.919" gradientUnits="userSpaceOnUse"><stop offset="0" style="stop-color:#00ffa1"/><stop offset="1" style="stop-color:#0083ff"/></linearGradient><rect width=".74" height="90.92" x="31.62" y="-7.85" class="st7"/></g><g><linearGradient id="SVGID_9_" x1="35.486" x2="35.486" y1="32.49" y2="80.919" gradientUnits="userSpaceOnUse"><stop offset="0" style="stop-color:#00ffa1"/><stop offset="1" style="stop-color:#0083ff"/></linearGradient><rect width=".74" height="90.92" x="35.12" y="-7.85" class="st8"/></g><g><linearGradient id="SVGID_10_" x1="38.983" x2="38.983" y1="32.49" y2="80.919" gradientUnits="userSpaceOnUse"><stop offset="0" style="stop-color:#00ffa1"/><stop offset="1" style="stop-color:#0083ff"/></linearGradient><rect width=".74" height="90.92" x="38.62" y="-7.85" class="st9"/></g><g><linearGradient id="SVGID_11_" x1="42.48" x2="42.48" y1="32.49" y2="80.919" gradientUnits="userSpaceOnUse"><stop offset="0" style="stop-color:#00ffa1"/><stop offset="1" style="stop-color:#0083ff"/></linearGradient><rect width=".74" height="90.92" x="42.11" y="-7.85" class="st10"/></g><g><linearGradient id="SVGID_12_" x1="45.977" x2="45.977" y1="32.49" y2="80.919" gradientUnits="userSpaceOnUse"><stop offset="0" style="stop-color:#00ffa1"/><stop offset="1" style="stop-color:#0083ff"/></linearGradient><rect width=".74" height="90.92" x="45.61" y="-7.85" class="st11"/></g><g><linearGradient id="SVGID_13_" x1="49.474" x2="49.474" y1="32.49" y2="80.919" gradientUnits="userSpaceOnUse"><stop offset="0" style="stop-color:#00ffa1"/><stop offset="1" style="stop-color:#0083ff"/></linearGradient><rect width=".74" height="90.92" x="49.11" y="-7.85" class="st12"/></g><g><linearGradient id="SVGID_14_" x1="52.971" x2="52.971" y1="32.49" y2="80.919" gradientUnits="userSpaceOnUse"><stop offset="0" style="stop-color:#00ffa1"/><stop offset="1" style="stop-color:#0083ff"/></linearGradient><rect width=".74" height="90.92" x="52.6" y="-7.85" class="st13"/></g><g><linearGradient id="SVGID_15_" x1="56.468" x2="56.468" y1="32.49" y2="80.919" gradientUnits="userSpaceOnUse"><stop offset="0" style="stop-color:#00ffa1"/><stop offset="1" style="stop-color:#0083ff"/></linearGradient><rect width=".74" height="90.92" x="56.1" y="-7.85" class="st14"/></g><g><linearGradient id="SVGID_16_" x1="59.965" x2="59.965" y1="32.49" y2="80.919" gradientUnits="userSpaceOnUse"><stop offset="0" style="stop-color:#00ffa1"/><stop offset="1" style="stop-color:#0083ff"/></linearGradient><rect width=".74" height="90.92" x="59.6" y="-7.85" class="st15"/></g><g><linearGradient id="SVGID_17_" x1="63.462" x2="63.462" y1="32.49" y2="80.919" gradientUnits="userSpaceOnUse"><stop offset="0" style="stop-color:#00ffa1"/><stop offset="1" style="stop-color:#0083ff"/></linearGradient><rect width=".74" height="90.92" x="63.09" y="-7.85" class="st16"/></g><g><linearGradient id="SVGID_18_" x1="66.96" x2="66.96" y1="32.49" y2="80.919" gradientUnits="userSpaceOnUse"><stop offset="0" style="stop-color:#00ffa1"/><stop offset="1" style="stop-color:#0083ff"/></linearGradient><rect width=".74" height="90.92" x="66.59" y="-7.85" class="st17"/></g><g><linearGradient id="SVGID_19_" x1="70.457" x2="70.457" y1="32.49" y2="80.919" gradientUnits="userSpaceOnUse"><stop offset="0" style="stop-color:#00ffa1"/><stop offset="1" style="stop-color:#0083ff"/></linearGradient><rect width=".74" height="90.92" x="70.09" y="-7.85" class="st18"/></g><g><linearGradient id="SVGID_20_" x1="73.954" x2="73.954" y1="32.49" y2="80.919" gradientUnits="userSpaceOnUse"><stop offset="0" style="stop-color:#00ffa1"/><stop offset="1" style="stop-color:#0083ff"/></linearGradient><rect width=".74" height="90.92" x="73.59" y="-7.85" class="st19"/></g><g><linearGradient id="SVGID_21_" x1="77.451" x2="77.451" y1="32.49" y2="80.919" gradientUnits="userSpaceOnUse"><stop offset="0" style="stop-color:#00ffa1"/><stop offset="1" style="stop-color:#0083ff"/></linearGradient><rect width=".74" height="90.92" x="77.08" y="-7.85" class="st20"/></g><g><linearGradient id="SVGID_22_" x1="80.948" x2="80.948" y1="32.49" y2="80.919" gradientUnits="userSpaceOnUse"><stop offset="0" style="stop-color:#00ffa1"/><stop offset="1" style="stop-color:#0083ff"/></linearGradient><rect width=".74" height="90.92" x="80.58" y="-7.85" class="st21"/></g><g><linearGradient id="SVGID_23_" x1="84.445" x2="84.445" y1="32.49" y2="80.919" gradientUnits="userSpaceOnUse"><stop offset="0" style="stop-color:#00ffa1"/><stop offset="1" style="stop-color:#0083ff"/></linearGradient><rect width=".74" height="90.92" x="84.08" y="-7.85" class="st22"/></g><g><linearGradient id="SVGID_24_" x1="87.942" x2="87.942" y1="32.49" y2="80.919" gradientUnits="userSpaceOnUse"><stop offset="0" style="stop-color:#00ffa1"/><stop offset="1" style="stop-color:#0083ff"/></linearGradient><rect width=".74" height="90.92" x="87.57" y="-7.85" class="st23"/></g></g></g><g><defs><path id="SVGID_25_" d="M78.99,20.05c-4.54,4.83-12.62,9.11-23.52,11.48c4.5,2.07,7.63,6.62,7.63,11.9 c0,7.23-5.86,13.09-13.09,13.09s-13.09-5.86-13.09-13.09c0-4.05,1.84-7.67,4.73-10.07c-0.73,0.04-1.48,0.07-2.23,0.1 c-10.98,0.36-20.03,4.52-26.64,8.94c-0.01,0.34-0.01,0.69-0.01,1.03C12.76,64,29.43,80.68,50,80.68S87.24,64,87.24,43.43 C87.24,34.57,84.15,26.44,78.99,20.05z"/></defs><clipPath id="SVGID_26_"><use xlink:href="#SVGID_25_" style="overflow:visible"/></clipPath><g class="st24"><g><linearGradient id="SVGID_27_" x1="13.211" x2="13.211" y1="76.086" y2="30.917" gradientUnits="userSpaceOnUse"><stop offset="0" style="stop-color:#f0f"/><stop offset="1" style="stop-color:#00ffa1"/></linearGradient><rect width="1.89" height="85.23" x="12.27" y=".55" class="st25"/></g><g><linearGradient id="SVGID_28_" x1="16.708" x2="16.708" y1="76.086" y2="30.917" gradientUnits="userSpaceOnUse"><stop offset="0" style="stop-color:#f0f"/><stop offset="1" style="stop-color:#00ffa1"/></linearGradient><rect width="1.89" height="85.23" x="15.76" y=".55" class="st26"/></g><g><linearGradient id="SVGID_29_" x1="20.205" x2="20.205" y1="76.086" y2="30.917" gradientUnits="userSpaceOnUse"><stop offset="0" style="stop-color:#f0f"/><stop offset="1" style="stop-color:#00ffa1"/></linearGradient><rect width="1.89" height="85.23" x="19.26" y=".55" class="st27"/></g><g><linearGradient id="SVGID_30_" x1="23.702" x2="23.702" y1="76.086" y2="30.917" gradientUnits="userSpaceOnUse"><stop offset="0" style="stop-color:#f0f"/><stop offset="1" style="stop-color:#00ffa1"/></linearGradient><rect width="1.89" height="85.23" x="22.76" y=".55" class="st28"/></g><g><linearGradient id="SVGID_31_" x1="27.199" x2="27.199" y1="76.086" y2="30.917" gradientUnits="userSpaceOnUse"><stop offset="0" style="stop-color:#f0f"/><stop offset="1" style="stop-color:#00ffa1"/></linearGradient><rect width="1.89" height="85.23" x="26.25" y=".55" class="st29"/></g><g><linearGradient id="SVGID_32_" x1="30.696" x2="30.696" y1="76.086" y2="30.917" gradientUnits="userSpaceOnUse"><stop offset="0" style="stop-color:#f0f"/><stop offset="1" style="stop-color:#00ffa1"/></linearGradient><rect width="1.89" height="85.23" x="29.75" y=".55" class="st30"/></g><g><linearGradient id="SVGID_33_" x1="34.193" x2="34.193" y1="76.086" y2="30.917" gradientUnits="userSpaceOnUse"><stop offset="0" style="stop-color:#f0f"/><stop offset="1" style="stop-color:#00ffa1"/></linearGradient><rect width="1.89" height="85.23" x="33.25" y=".55" class="st31"/></g><g><linearGradient id="SVGID_34_" x1="37.69" x2="37.69" y1="76.086" y2="30.917" gradientUnits="userSpaceOnUse"><stop offset="0" style="stop-color:#f0f"/><stop offset="1" style="stop-color:#00ffa1"/></linearGradient><rect width="1.89" height="85.23" x="36.74" y=".55" class="st32"/></g><g><linearGradient id="SVGID_35_" x1="41.187" x2="41.187" y1="76.086" y2="30.917" gradientUnits="userSpaceOnUse"><stop offset="0" style="stop-color:#f0f"/><stop offset="1" style="stop-color:#00ffa1"/></linearGradient><rect width="1.89" height="85.23" x="40.24" y=".55" class="st33"/></g><g><linearGradient id="SVGID_36_" x1="44.684" x2="44.684" y1="76.086" y2="30.917" gradientUnits="userSpaceOnUse"><stop offset="0" style="stop-color:#f0f"/><stop offset="1" style="stop-color:#00ffa1"/></linearGradient><rect width="1.89" height="85.23" x="43.74" y=".55" class="st34"/></g><g><linearGradient id="SVGID_37_" x1="48.181" x2="48.181" y1="76.086" y2="30.917" gradientUnits="userSpaceOnUse"><stop offset="0" style="stop-color:#f0f"/><stop offset="1" style="stop-color:#00ffa1"/></linearGradient><rect width="1.89" height="85.23" x="47.24" y=".55" class="st35"/></g><g><linearGradient id="SVGID_38_" x1="51.678" x2="51.678" y1="76.086" y2="30.917" gradientUnits="userSpaceOnUse"><stop offset="0" style="stop-color:#f0f"/><stop offset="1" style="stop-color:#00ffa1"/></linearGradient><rect width="1.89" height="85.23" x="50.73" y=".55" class="st36"/></g><g><linearGradient id="SVGID_39_" x1="55.175" x2="55.175" y1="76.086" y2="30.917" gradientUnits="userSpaceOnUse"><stop offset="0" style="stop-color:#f0f"/><stop offset="1" style="stop-color:#00ffa1"/></linearGradient><rect width="1.89" height="85.23" x="54.23" y=".55" class="st37"/></g><g><linearGradient id="SVGID_40_" x1="58.672" x2="58.672" y1="76.086" y2="30.917" gradientUnits="userSpaceOnUse"><stop offset="0" style="stop-color:#f0f"/><stop offset="1" style="stop-color:#00ffa1"/></linearGradient><rect width="1.89" height="85.23" x="57.73" y=".55" class="st38"/></g><g><linearGradient id="SVGID_41_" x1="62.169" x2="62.169" y1="76.086" y2="30.917" gradientUnits="userSpaceOnUse"><stop offset="0" style="stop-color:#f0f"/><stop offset="1" style="stop-color:#00ffa1"/></linearGradient><rect width="1.89" height="85.23" x="61.22" y=".55" class="st39"/></g><g><linearGradient id="SVGID_42_" x1="65.666" x2="65.666" y1="76.086" y2="30.917" gradientUnits="userSpaceOnUse"><stop offset="0" style="stop-color:#f0f"/><stop offset="1" style="stop-color:#00ffa1"/></linearGradient><rect width="1.89" height="85.23" x="64.72" y=".55" class="st40"/></g><g><linearGradient id="SVGID_43_" x1="69.163" x2="69.163" y1="76.086" y2="30.917" gradientUnits="userSpaceOnUse"><stop offset="0" style="stop-color:#f0f"/><stop offset="1" style="stop-color:#00ffa1"/></linearGradient><rect width="1.89" height="85.23" x="68.22" y=".55" class="st41"/></g><g><linearGradient id="SVGID_44_" x1="72.66" x2="72.66" y1="76.086" y2="30.917" gradientUnits="userSpaceOnUse"><stop offset="0" style="stop-color:#f0f"/><stop offset="1" style="stop-color:#00ffa1"/></linearGradient><rect width="1.89" height="85.23" x="71.71" y=".55" class="st42"/></g><g><linearGradient id="SVGID_45_" x1="76.157" x2="76.157" y1="76.086" y2="30.917" gradientUnits="userSpaceOnUse"><stop offset="0" style="stop-color:#f0f"/><stop offset="1" style="stop-color:#00ffa1"/></linearGradient><rect width="1.89" height="85.23" x="75.21" y=".55" class="st43"/></g><g><linearGradient id="SVGID_46_" x1="79.654" x2="79.654" y1="76.086" y2="30.917" gradientUnits="userSpaceOnUse"><stop offset="0" style="stop-color:#f0f"/><stop offset="1" style="stop-color:#00ffa1"/></linearGradient><rect width="1.89" height="85.23" x="78.71" y=".55" class="st44"/></g><g><linearGradient id="SVGID_47_" x1="83.151" x2="83.151" y1="76.086" y2="30.917" gradientUnits="userSpaceOnUse"><stop offset="0" style="stop-color:#f0f"/><stop offset="1" style="stop-color:#00ffa1"/></linearGradient><rect width="1.89" height="85.23" x="82.21" y=".55" class="st45"/></g><g><linearGradient id="SVGID_48_" x1="86.648" x2="86.648" y1="76.086" y2="30.917" gradientUnits="userSpaceOnUse"><stop offset="0" style="stop-color:#f0f"/><stop offset="1" style="stop-color:#00ffa1"/></linearGradient><rect width="1.89" height="85.23" x="85.7" y=".55" class="st46"/></g></g></g></g></g></svg>