<svg xmlns="http://www.w3.org/2000/svg" width="100" height="100" fill="none" viewBox="0 0 525 525"><g filter="url(#solarea0_f)"><path fill="url(#solarea0_radial)" d="M262.5 399C337.887 399 399 337.887 399 262.5C399 187.113 337.887 126 262.5 126C187.113 126 126 187.113 126 262.5C126 337.887 187.113 399 262.5 399Z"/></g><path fill="url(#solarea0_radial)" d="M263 381.478C328.433 381.478 381.478 328.433 381.478 263C381.478 197.566 328.433 144.521 263 144.521C197.566 144.521 144.521 197.566 144.521 263C144.521 328.433 197.566 381.478 263 381.478Z"/><path fill="#124" fill-rule="evenodd" d="M388 263C388 331.75 331.75 388 263 388C194.25 388 138 331.75 138 263C138 194.25 194.25 138 263 138C331.75 138 388 194.25 388 263ZM284.875 215.5C246.125 226.125 213 248.625 194.875 228.625C161.125 191.125 263.625 109.875 339.875 182.375C350.5 192.375 369.875 214.875 373.625 249.25C373.625 249.875 372.375 250.5 372.375 249.25C364.25 221.125 331.75 202.375 284.875 215.5ZM241.125 311.75C279.875 301.125 313 278.625 331.125 298.625C364.875 336.125 262.375 417.375 186.125 344.875C175.5 334.875 156.125 312.375 152.375 278C152.375 277.375 153.625 276.75 153.625 278C161.75 306.125 194.25 324.875 241.125 311.75Z" clip-rule="evenodd"/><defs><filter id="solarea0_f" width="525" height="525" x="0" y="0" color-interpolation-filters="sRGB" filterUnits="userSpaceOnUse"><feFlood flood-opacity="0" result="BackgroundImageFix"/><feBlend in="SourceGraphic" in2="BackgroundImageFix" mode="normal" result="shape"/><feGaussianBlur result="effect1_foregroundBlur" stdDeviation="63"/></filter><radialGradient id="solarea0_radial" cx="0" cy="0" r="1" gradientTransform="translate(334.772 286.058) scale(190.278)" gradientUnits="userSpaceOnUse"><stop stop-color="#FFB300"/><stop offset=".24" stop-color="#FFB001"/><stop offset=".393" stop-color="#FFA806"/><stop offset=".521" stop-color="#FF990E"/><stop offset=".635" stop-color="#FF8419"/><stop offset=".741" stop-color="#FF6928"/><stop offset=".84" stop-color="#FF4839"/><stop offset=".932" stop-color="#FF214E"/><stop offset="1" stop-color="#FF0060"/></radialGradient></defs></svg>