<svg xmlns="http://www.w3.org/2000/svg" xmlns:xlink="http://www.w3.org/1999/xlink" style="enable-background:new 0 0 300 300" id="Capa_1" x="0" y="0" version="1.1" viewBox="0 0 300 300" xml:space="preserve"><style type="text/css">.st0{fill:url(#SVGID_1_)}.st1{fill:url(#SVGID_2_)}.st2{fill:url(#SVGID_3_)}.st3{fill:url(#SVGID_4_)}</style><g id="SAIL"><linearGradient id="SVGID_1_" x1="106.887" x2="200.922" y1="74.77" y2="296.304" gradientTransform="matrix(1 0 0 -1 0 300.49)" gradientUnits="userSpaceOnUse"><stop style="stop-color:#00caec" offset=".083"/><stop style="stop-color:#00b7dd" offset=".103"/><stop style="stop-color:#0091c2" offset=".146"/><stop style="stop-color:#0070a9" offset=".194"/><stop style="stop-color:#005594" offset=".247"/><stop style="stop-color:#003e84" offset=".306"/><stop style="stop-color:#002d77" offset=".375"/><stop style="stop-color:#00216e" offset=".46"/><stop style="stop-color:#001a68" offset=".576"/><stop style="stop-color:#001867" offset=".874"/></linearGradient><path d="M191.1,0C139.5,47.7,73.6,139.2,67.6,209c29.7,5,60.9,15.8,88.5,31.1C91.3,101.3,191.1,0,191.1,0z" class="st0"/><radialGradient id="SVGID_2_" cx="219.587" cy="146.779" r="76.257" gradientTransform="matrix(1 0 0 -1 0 300.49)" gradientUnits="userSpaceOnUse"><stop style="stop-color:#fff1d2" offset=".372"/><stop style="stop-color:#fff0cf" offset=".495"/><stop style="stop-color:#ffecc6" offset=".585"/><stop style="stop-color:#ffe5b6" offset=".664"/><stop style="stop-color:#ffdc9f" offset=".737"/><stop style="stop-color:#ffd082" offset=".806"/><stop style="stop-color:#ffc25f" offset=".872"/><stop style="stop-color:#ffb034" offset=".935"/><stop style="stop-color:#ff9d05" offset=".995"/><stop style="stop-color:#ff9b00" offset="1"/></radialGradient><path d="M187.6,34.5c-23.4,23-74.5,85.5-22.6,209c29.8,17.8,66.5,22.1,66.5,22.1S111,130.7,187.6,34.5z" class="st1"/><radialGradient id="SVGID_3_" cx="70.878" cy="43.958" r="57.772" fx="63.513" fy="44.183" gradientTransform="matrix(1 0 0 -1 0 300.49)" gradientUnits="userSpaceOnUse"><stop style="stop-color:#00caec" offset=".083"/><stop style="stop-color:#0076ad" offset=".486"/><stop style="stop-color:#00327b" offset=".837"/><stop style="stop-color:#001867" offset="1"/></radialGradient><path d="M36.3,267.1c-2.9-15.9-1.7-43.7,29.7-40.5c41.2,4.2,133.5,53.6,165.8,52.4c32.3-1.3,40.9-25.5,40.9-25.5 s-1.3,43.5-53.6,40.9C159.4,292.1,43.6,219.3,36.3,267.1z" class="st2"/><linearGradient id="SVGID_4_" x1="18.974" x2="180.44" y1="20.142" y2="20.142" gradientTransform="matrix(1 0 0 -1 0 300.49)" gradientUnits="userSpaceOnUse"><stop style="stop-color:#00caec" offset=".083"/><stop style="stop-color:#00b7dd" offset=".103"/><stop style="stop-color:#0091c2" offset=".146"/><stop style="stop-color:#0070a9" offset=".194"/><stop style="stop-color:#005594" offset=".247"/><stop style="stop-color:#003e84" offset=".306"/><stop style="stop-color:#002d77" offset=".375"/><stop style="stop-color:#00216e" offset=".46"/><stop style="stop-color:#001a68" offset=".576"/><stop style="stop-color:#001867" offset=".874"/></linearGradient><path d="M47.8,286.9c-9.6-21.2-2.5-29.9,21.5-24.8c18.2,3.9,40.5,12.5,135.8,37.9c-15-1.1-125.7-27.1-135.8-28.7 C42.2,267.2,47.8,286.9,47.8,286.9z" class="st3"/></g></svg>