<svg xmlns="http://www.w3.org/2000/svg" width="100" height="100" fill="none" viewBox="0 0 100 100"><circle cx="50" cy="50" r="50" fill="#F7D8FB"/><mask id="mask0" width="100" height="100" x="0" y="0" mask-type="alpha" maskUnits="userSpaceOnUse"><circle cx="50" cy="50" r="50" fill="#C4C4C4"/></mask><g mask="url(#mask0)"><rect width="3.241" height="3.241" x="41.435" y="46.99" fill="#fff" fill-opacity=".56"/><rect width="3.241" height="3.241" x="38.194" y="50.231" fill="#fff" fill-opacity=".56"/><path fill="#D83AEB" fill-rule="evenodd" d="M41.435 14.5833H38.1943V17.8239H34.9536V43.7498H41.4351V17.8239H41.435V14.5833ZM31.7128 30.7865H28.4721V34.0273H31.7128V30.7865ZM25.2314 34.0274H31.7128H31.7129H34.9536V98.8423H31.7129H25.2314V34.0274ZM-20.139 102.083H-3.93534V150.694H-3.93517V157.176H-3.93534V157.176H-7.17608V166.898H-10.4167V176.62H-16.8981V166.898H-20.139V157.176V157.176L-20.139 157.176H-23.3797V105.324H-20.139V102.083ZM-0.694434 176.62V166.898H2.54622L2.54618 160.416H5.78692L5.78688 157.176V153.935H-0.694599V157.176L-3.93526 157.176V166.898H-7.17592V176.62H-0.694434ZM38.1944 166.898V157.176H25.2314V166.898H28.4721V176.62H34.9536V166.898H38.1944ZM38.1944 166.898L38.1943 176.62H44.6758V166.898H47.9167L47.9166 160.416H51.1574L51.1573 157.176V153.935H44.6759V157.176L41.4352 157.176V166.898H38.1944ZM-23.3797 111.805H-26.6205V150.694H-23.3797V111.805ZM21.9906 95.6017H25.2314V98.8423H34.9536V63.1941H41.4351V98.8423H41.4352V66.435H44.6759V69.6757H47.9166H51.1574V72.9166H54.398V85.8795L54.3981 79.3981V79.3979V72.9166H57.6387H57.6388H60.8795V76.1573H57.6388V79.3979V79.3981V98.8423H60.8795H64.1203V134.49H64.1203V137.731H60.8795L60.8795 134.49V144.213H57.6387L57.6388 147.453H54.3981V150.694H44.6759V134.49H41.4351V140.972H41.4351V157.176H21.9906V140.972H18.75V134.49V102.083V98.8423H21.9906V95.6017ZM-0.694599 102.083H-3.93526V137.731H-0.694599V150.694H18.7498V102.083H-0.694516H-0.694599ZM41.4352 30.7865H44.6759H44.6759H47.9166V43.7495H44.6759V40.5088H41.4352V30.7865ZM47.9166 30.7865H64.1203V40.5088H47.9166V30.7865ZM44.6759 24.3056V27.546H47.9166V24.3056V24.3052V21.0648H44.6759V24.3052V24.3056ZM51.1574 17.8239H47.9166V27.5461H51.1574V17.8239Z" clip-rule="evenodd"/><rect width="3.241" height="3.241" x="47.917" y="72.916" fill="#000" fill-opacity=".24"/><rect width="3.241" height="3.241" x="51.157" y="76.157" fill="#000" fill-opacity=".24"/><rect width="3.241" height="3.241" x="54.398" y="76.157" fill="#000" fill-opacity=".24"/><rect width="3.241" height="3.241" x="38.194" y="63.194" fill="#000" fill-opacity=".24"/><rect width="3.241" height="3.241" x="47.917" y="21.065" fill="#000" fill-opacity=".4"/><rect width="3.241" height="3.241" x="47.917" y="17.824" fill="#000" fill-opacity=".4"/><rect width="3.241" height="3.241" x="44.676" y="21.065" fill="#000" fill-opacity=".4"/><rect width="3.241" height="3.241" x="44.676" y="24.305" fill="#000" fill-opacity=".4"/><rect width="3.241" height="3.241" x="47.917" y="24.305" fill="#000" fill-opacity=".4"/><rect width="3.241" height="3.241" x="38.194" y="14.583" fill="#fff" fill-opacity=".28"/><rect width="3.241" height="3.241" x="34.954" y="17.824" fill="#fff" fill-opacity=".28"/><rect width="3.241" height="3.241" x="57.639" y="98.842" fill="#fff" fill-opacity=".28"/><rect width="3.241" height="3.241" x="57.639" y="92.361" fill="#000"/><rect width="3.241" height="3.241" x="57.639" y="89.12" fill="#000"/><rect width="3.241" height="3.241" x="57.639" y="85.879" fill="#000"/><rect width="3.241" height="3.241" x="57.639" y="82.638" fill="#000"/><rect width="3.241" height="3.241" x="57.639" y="79.398" fill="#000"/><rect width="3.241" height="3.241" x="57.639" y="72.916" fill="#000"/><rect width="3.241" height="3.241" x="54.398" y="72.916" fill="#000"/><rect width="3.241" height="3.241" x="44.676" y="69.675" fill="#000"/><rect width="3.241" height="3.241" x="57.639" y="76.157" fill="#000"/><rect width="3.241" height="3.241" x="47.917" y="69.675" fill="#000"/><rect width="3.241" height="3.241" x="41.435" y="66.435" fill="#000"/><rect width="3.241" height="3.241" x="38.194" y="63.194" fill="#000"/><rect width="3.241" height="3.241" x="34.954" y="59.953" fill="#000"/><rect width="3.241" height="3.241" x="31.713" y="56.713" fill="#000"/><rect width="3.241" height="3.241" x="31.713" y="53.472" fill="#000"/><rect width="3.241" height="3.241" x="31.713" y="50.231" fill="#000"/><rect width="3.241" height="3.241" x="31.713" y="46.99" fill="#000"/><rect width="3.241" height="3.241" x="34.954" y="43.75" fill="#000"/><rect width="3.241" height="3.241" x="38.194" y="40.509" fill="#000"/><rect width="3.241" height="3.241" x="41.435" y="40.509" fill="#000"/><rect width="3.241" height="3.241" x="44.676" y="40.509" fill="#000"/><rect width="3.241" height="3.241" x="47.917" y="40.509" fill="#000"/><rect width="3.241" height="3.241" x="51.157" y="40.509" fill="#000"/><rect width="3.241" height="3.241" x="54.398" y="40.509" fill="#000"/><rect width="3.241" height="3.241" x="57.639" y="40.509" fill="#000"/><rect width="3.241" height="3.241" x="64.12" y="37.268" fill="#000"/><rect width="3.241" height="3.241" x="64.12" y="34.027" fill="#000"/><rect width="3.241" height="3.241" x="60.88" y="30.786" fill="#000"/><rect width="3.241" height="3.241" x="57.639" y="27.546" fill="#000"/><rect width="3.241" height="3.241" x="54.398" y="27.546" fill="#000"/><rect width="3.241" height="3.241" x="47.917" y="27.546" fill="#000"/><rect width="3.241" height="3.241" x="44.676" y="27.546" fill="#000"/><rect width="3.241" height="3.241" x="51.157" y="27.546" fill="#000"/><rect width="3.241" height="3.241" x="51.157" y="14.583" fill="#000"/><rect width="3.241" height="3.241" x="51.157" y="21.065" fill="#000"/><rect width="3.241" height="3.241" x="51.157" y="17.824" fill="#000"/><rect width="3.241" height="3.241" x="51.157" y="24.305" fill="#000"/><rect width="3.241" height="3.241" x="41.435" y="24.305" fill="#000"/><rect width="3.241" height="3.241" x="41.435" y="27.546" fill="#000"/><rect width="3.241" height="3.241" x="41.435" y="30.786" fill="#000"/><rect width="3.241" height="3.241" x="41.435" y="21.065" fill="#000"/><rect width="3.241" height="3.241" x="41.435" y="14.583" fill="#000"/><rect width="3.241" height="3.241" x="41.435" y="11.342" fill="#000"/><rect width="3.241" height="3.241" x="38.194" y="11.342" fill="#000"/><rect width="3.241" height="3.241" x="34.954" y="14.583" fill="#000"/><rect width="3.241" height="3.241" x="31.713" y="17.824" fill="#000"/><rect width="3.241" height="3.241" x="31.713" y="21.065" fill="#000"/><rect width="3.241" height="3.241" x="31.713" y="27.546" fill="#000"/><rect width="3.241" height="3.241" x="31.713" y="24.305" fill="#000"/><rect width="3.241" height="3.241" x="31.713" y="30.786" fill="#000"/><rect width="3.241" height="3.241" x="31.713" y="34.027" fill="#000"/><rect width="3.241" height="3.241" x="41.435" y="17.824" fill="#000"/><rect width="3.241" height="3.241" x="44.676" y="17.824" fill="#000"/><rect width="3.241" height="3.241" x="47.917" y="14.583" fill="#000"/><rect width="3.241" height="3.241" x="60.88" y="40.509" fill="#000"/><rect width="3.241" height="3.241" x="64.12" y="40.509" fill="#000"/><rect width="3.241" height="3.241" x="67.361" y="43.75" fill="#000"/><rect width="3.241" height="3.241" x="67.361" y="46.99" fill="#000"/><rect width="3.241" height="3.241" x="73.843" y="53.472" fill="#000"/><rect width="3.241" height="3.241" x="70.602" y="50.231" fill="#000"/><rect width="3.241" height="3.241" x="77.083" y="59.953" fill="#000"/><rect width="3.241" height="3.241" x="77.083" y="63.194" fill="#000"/><rect width="3.241" height="3.241" x="77.083" y="56.713" fill="#000"/><rect width="3.241" height="3.241" x="73.843" y="69.675" fill="#000"/><rect width="3.241" height="3.241" x="77.083" y="66.435" fill="#000"/><rect width="3.241" height="3.241" x="70.602" y="72.916" fill="#000"/><rect width="3.241" height="3.241" x="67.361" y="72.916" fill="#000"/><rect width="3.241" height="3.241" x="64.12" y="72.916" fill="#000"/><rect width="3.241" height="3.241" x="60.88" y="72.916" fill="#000"/><rect width="3.241" height="3.241" x="51.157" y="72.916" fill="#000"/><rect width="3.241" height="3.241" x="57.639" y="95.602" fill="#000"/><rect width="3.241" height="3.241" x="60.88" y="98.842" fill="#000"/><rect width="3.241" height="3.241" x="-.695" y="98.842" fill="#000"/><rect width="3.241" height="3.241" x="2.546" y="98.842" fill="#000"/><rect width="3.241" height="3.241" x="5.787" y="98.842" fill="#000"/><rect width="3.241" height="3.241" x="9.028" y="98.842" fill="#000"/><rect width="3.241" height="3.241" x="12.269" y="98.842" fill="#000"/><rect width="3.241" height="3.241" x="15.509" y="98.842" fill="#000"/><rect width="3.241" height="3.241" x="18.75" y="95.602" fill="#000"/><rect width="3.241" height="3.241" x="28.472" y="27.546" fill="#000"/><rect width="3.241" height="3.241" x="25.231" y="30.786" fill="#000"/><rect width="3.241" height="3.241" x="21.991" y="34.027" fill="#000"/><rect width="3.241" height="3.241" x="21.991" y="85.879" fill="#000"/><rect width="3.241" height="3.241" x="21.991" y="76.157" fill="#000"/><rect width="3.241" height="3.241" x="21.991" y="72.916" fill="#000"/><rect width="3.241" height="3.241" x="21.991" y="79.398" fill="#000"/><rect width="3.241" height="3.241" x="21.991" y="82.638" fill="#000"/><rect width="3.241" height="3.241" x="21.991" y="66.435" fill="#000"/><rect width="3.241" height="3.241" x="21.991" y="63.194" fill="#000"/><rect width="3.241" height="3.241" x="21.991" y="59.953" fill="#000"/><rect width="3.241" height="3.241" x="21.991" y="69.675" fill="#000"/><rect width="3.241" height="3.241" x="21.991" y="56.713" fill="#000"/><rect width="3.241" height="3.241" x="21.991" y="37.268" fill="#000"/><rect width="3.241" height="3.241" x="21.991" y="50.231" fill="#000"/><rect width="3.241" height="3.241" x="21.991" y="53.472" fill="#000"/><rect width="3.241" height="3.241" x="21.991" y="46.99" fill="#000"/><rect width="3.241" height="3.241" x="21.991" y="43.75" fill="#000"/><rect width="3.241" height="3.241" x="21.991" y="40.509" fill="#000"/><rect width="3.241" height="3.241" x="21.991" y="92.361" fill="#000"/><rect width="3.241" height="3.241" x="21.991" y="89.12" fill="#000"/><path fill="#F6D4FB" fill-rule="evenodd" d="M41.4351 43.75H38.1944V46.9904V46.9907V50.2312H41.4351V46.9907V46.9904V43.75ZM34.9536 46.9904H38.1944V50.2312H34.9536V46.9904ZM34.9536 50.2313H38.1944V53.472V53.4721V56.7127H34.9536V53.4721V53.472V50.2313ZM41.4351 50.2313H38.1944V53.472V53.4721V56.7127H41.4351V53.4721V53.472V50.2313ZM41.4353 53.4721V56.7127H44.676H44.676H47.9167V53.4721V53.472V50.2313H44.676H44.676H41.4353V53.472V53.4721ZM41.4353 56.7129H44.676H44.676H47.9167V59.9533V59.9536V63.194H44.676H44.676H41.4353V59.9536V59.9533V56.7129ZM47.9167 63.1942H44.676H44.676H41.4353V66.4349H44.676H44.676H47.9167V63.1942ZM38.1944 56.7129H41.4351V59.9533V59.9536V63.194H38.1944V59.9536V59.9533V56.7129ZM34.9536 56.7129H38.1944V59.9536H34.9536V56.7129ZM47.9167 56.7129H51.1574H51.1575H54.3981V59.9533V59.9536V63.194H51.1575H51.1574H47.9167V59.9536V59.9533V56.7129ZM47.9167 63.1942H51.1574H51.1575H54.3981V66.4349H51.1575H51.1574H47.9167V63.1942ZM51.1575 66.4351H54.3981V69.6758V69.6758V72.9165H51.1574V69.6758H47.9167V66.4351H51.1574H51.1575ZM44.676 66.4351H47.9167V69.6758H44.676V66.4351ZM57.6388 63.1942H54.3982V66.4349H57.6388H57.6389H60.8796V63.1942H57.6389H57.6388ZM60.8796 56.7129H57.6389H57.6388H54.3982V59.9533V59.9536V63.194H57.6388H57.6389H60.8796V59.9536V59.9533V56.7129ZM67.361 53.4721V56.7127H64.1204H64.1203H60.8796V53.4721V53.472V50.2313H64.1203H64.1204H67.361V53.472V53.4721ZM60.8796 56.7129H64.1203H64.1204H67.361V59.9533V59.9536V63.194H64.1204H64.1203H60.8796V59.9536V59.9533V56.7129ZM70.6018 63.194V59.9536V59.9533V56.7129H67.3611V59.9533V59.9536V63.194H70.6018ZM67.3611 63.1942H70.6018V66.4349H67.3611V63.1942ZM67.361 63.1942H64.1204H64.1203H60.8796V66.4349H64.1203H64.1204H67.361V63.1942ZM60.8796 66.4351H64.1203H64.1204H67.361V69.6758V69.6758V72.9165H64.1204H64.1203H60.8796V69.6758V69.6758V66.4351ZM70.6018 72.9165V69.6758V69.6758V66.4351H67.3611V69.6758V69.6758V72.9165H70.6018ZM60.8796 66.4351H57.6389H57.6388H54.3982V69.6758V69.6758V72.9165H57.6388H57.6389H60.8796V69.6758V69.6758V66.4351ZM67.361 50.2312V46.9907V46.9904V43.75H64.1204H64.1203H60.8796V46.9904V46.9907V50.2312H64.1203H64.1204H67.361ZM60.8796 46.9907V50.2312H57.6389H57.6388H54.3982V46.9907V46.9904V43.75H57.6388H57.6389H60.8796V46.9904V46.9907ZM54.3982 53.4721V56.7127H57.6388H57.6389H60.8796V53.4721V53.472V50.2313H57.6389H57.6388H54.3982V53.472V53.4721ZM54.3981 56.7127V53.4721V53.472V50.2313H51.1575H51.1574H47.9167V53.472V53.4721V56.7127H51.1574H51.1575H54.3981ZM47.9167 46.9907V46.9904V43.75H51.1574H51.1575H54.3981V46.9904V46.9907V50.2312H51.1575H51.1574H47.9167V46.9907ZM47.9167 46.9907V50.2312H44.676H44.676H41.4353V46.9907V46.9904V43.75H44.676H44.676H47.9167V46.9904V46.9907ZM67.3611 53.4721V56.7127H70.6018V53.4721V53.472V50.2313H67.3611V53.472V53.4721ZM73.8426 56.7129H70.602V59.9533V59.9536V63.194H73.8426H73.8427H77.0834V59.9536V59.9533V56.7129H73.8427H73.8426ZM70.602 53.472H73.8427V56.7127H70.602V53.472ZM70.602 63.1942H73.8426H73.8427H77.0834V66.4349H73.8427H73.8426H70.602V63.1942ZM70.602 66.4351H73.8426H73.8427H77.0834V69.6758H73.8427V72.9165H70.602V69.6758V69.6758V66.4351Z" clip-rule="evenodd"/><path fill="#000" fill-rule="evenodd" d="M64.1206 66.4348H67.3613V69.6756H64.1206V66.4348ZM60.8796 66.4349H64.1204V69.6756H60.8796V66.4349ZM70.6021 66.4348H67.3614V69.6756H70.6021V66.4348Z" clip-rule="evenodd"/><rect width="3.241" height="3.241" x="47.917" y="53.472" fill="#000"/><rect width="3.241" height="3.241" x="51.157" y="53.472" fill="#fff"/><rect width="3.241" height="3.241" x="64.12" y="53.472" fill="#000"/><rect width="3.241" height="3.241" x="67.361" y="53.472" fill="#fff"/><rect width="6.481" height="3.241" x="47.917" y="50.231" fill="#000" fill-opacity=".24"/><rect width="6.481" height="3.241" x="64.12" y="50.231" fill="#000" fill-opacity=".24"/></g></svg>