<svg xmlns="http://www.w3.org/2000/svg" xmlns:xlink="http://www.w3.org/1999/xlink" id="Capa_1" x="0" y="0" version="1.1" viewBox="0 0 100 100" xml:space="preserve" style="enable-background:new 0 0 100 100"><style type="text/css">.st0{fill:url(#SVGID_1_)}.st1{fill:url(#SVGID_2_)}.st2{fill:url(#SVGID_3_)}.st3{fill:#0057bf}.st4{fill:#28dd8b}.st5{fill:none}</style><g><linearGradient id="SVGID_1_" x1="9.493" x2="89.507" y1="23.781" y2="23.781" gradientUnits="userSpaceOnUse"><stop offset="0" style="stop-color:#2ffc93"/><stop offset=".642" style="stop-color:#108fb0"/><stop offset="1" style="stop-color:#0057bf"/></linearGradient><path d="M11,20.7l70.5,26.2c5.5,2.1,11.7-0.8,13.7-6.3c2.1-5.5-0.8-11.7-6.3-13.7L18.5,0.7C12.9-1.4,6.8,1.4,4.8,7 C2.7,12.5,5.5,18.6,11,20.7z" class="st0"/><linearGradient id="SVGID_2_" x1="4.082" x2="95.918" y1="50" y2="50" gradientUnits="userSpaceOnUse"><stop offset="0" style="stop-color:#2ffc93"/><stop offset=".642" style="stop-color:#108fb0"/><stop offset="1" style="stop-color:#0057bf"/></linearGradient><path d="M11,46.9l70.5,26.2c5.5,2.1,11.7-0.8,13.7-6.3c2.1-5.5-0.8-11.7-6.3-13.7L18.5,26.9 c-5.5-2.1-11.7,0.8-13.7,6.3C2.7,38.7,5.5,44.8,11,46.9z" class="st1"/><linearGradient id="SVGID_3_" x1="4.082" x2="95.918" y1="76.221" y2="76.221" gradientUnits="userSpaceOnUse"><stop offset="0" style="stop-color:#2ffc93"/><stop offset=".642" style="stop-color:#108fb0"/><stop offset="1" style="stop-color:#0057bf"/></linearGradient><path d="M11,73.1l70.5,26.2c5.5,2.1,11.7-0.8,13.7-6.3c2.1-5.5-0.8-11.7-6.3-13.7L18.5,53.1 c-5.5-2.1-11.7,0.8-13.7,6.3C2.7,64.9,5.5,71.1,11,73.1z" class="st2"/><circle cx="85.2" cy="10.7" r="10.7" class="st3"/><circle cx="14.8" cy="89.3" r="10.7" class="st4"/></g><rect width="100" height="100" x="0" y="0" class="st5"/></svg>