<svg xmlns="http://www.w3.org/2000/svg" width="100" height="99" fill="none" viewBox="0 0 100 99"><g clip-path="url(#clip0)"><path fill="#0075FF" d="M82.8857 49C82.8857 30.2223 67.6889 15 48.9429 15C30.1967 15 15 30.2223 15 49C15 67.7776 30.1967 83 48.9429 83C67.6889 83 82.8857 67.7776 82.8857 49Z"/><path fill="#fff" d="M48.9424 71.7803L55.1989 65.5501L48.9424 59.3196L42.6669 65.5501L48.9424 71.7803ZM68.5585 52.2818L72.0235 48.8206L48.9424 25.8802L25.8613 48.8206L29.3264 52.2818L48.9424 32.7643L68.5585 52.2818ZM60.1463 60.6467L63.6113 57.1855L48.9424 42.5904L34.2545 57.1855L37.7388 60.6467L48.9424 49.4936L60.1463 60.6467Z"/></g><defs><clipPath id="clip0"><rect width="99.658" height="98.427" fill="#fff"/></clipPath></defs></svg>