<svg xmlns="http://www.w3.org/2000/svg" xmlns:xlink="http://www.w3.org/1999/xlink" id="图层_1" x="0" y="0" version="1.1" viewBox="0 0 1024 1024" xml:space="preserve" style="enable-background:new 0 0 1024 1024"><style type="text/css">.st0{fill:#2980fe}.st1{opacity:.6}.st1,.st2{fill:#fff}</style><rect width="1024" height="1024" x=".5" y="-.5" class="st0"/><g><path d="M464.1,389.7h-19.1V253.3h-252c-4.8,0-8.7,3.9-8.7,8.7v192.3l0,0l0,0c0,4.8,3.9,8.7,8.7,8.7h96.2v349.7l0,0 l0,0c0,4.8,3.9,8.7,8.7,8.7h0l0,0h157.4c4.8,0,8.7-3.9,8.7-8.7l0,0l0,0V389.7z" class="st1"/><path d="M630.8,201.5h-60.5l0,0H404.2l0,0c-4.8,0-8.7,3.9-8.7,8.7V761l0,0l0,0c0,4.8,3.9,8.7,8.7,8.7l0,0h157.4 c0,0,0,0,0,0c4.8,0,8.7-3.9,8.7-8.7V621.1h60.5c115.9,0,209.8-93.9,209.8-209.8C840.6,295.4,746.7,201.5,630.8,201.5z" class="st2"/></g></svg>