<svg xmlns="http://www.w3.org/2000/svg" id="Layer_1" data-name="Layer 1" viewBox="0 0 69.8 80.47"><defs><style>.cls-1{fill:none;stroke:#0f6;stroke-miterlimit:10;stroke-width:2.8px}.cls-2{fill:#fff}</style></defs><polygon points="34.9 56.85 67.83 23.93 45.88 1.98 34.9 12.95 23.93 1.98 1.98 23.93 34.9 56.85" class="cls-1"/><polyline points="34.9 12.95 23.93 23.93 29.41 29.41 40.39 18.44 56.85 34.9" class="cls-1"/><line x1="51.36" x2="40.39" y1="40.39" y2="29.41" class="cls-1"/><line x1="45.88" x2="34.9" y1="45.88" y2="34.9" class="cls-1"/><line x1="40.39" x2="29.41" y1="51.36" y2="40.39" class="cls-1"/><path d="M25.41,77.78H27.7V87H30V77.78h2.29V87h2.29V77.78h2.3V89.25H25.41Z" class="cls-2" transform="translate(-15.1 -8.78)"/><path d="M40.83,77.78H52.3v2.29H43.12V87H50V84.66H45.42v-2.3H52.3v6.89H40.83Z" class="cls-2" transform="translate(-15.1 -8.78)"/><path d="M56.25,77.78H67.72V89.25h-2.3V80.07H63.13v9.18H60.84V80.07h-2.3v9.18H56.25Z" class="cls-2" transform="translate(-15.1 -8.78)"/><path d="M71.67,77.78H74V89.25H71.67Z" class="cls-2" transform="translate(-15.1 -8.78)"/></svg>