<svg xmlns="http://www.w3.org/2000/svg" xmlns:xlink="http://www.w3.org/1999/xlink" width="100" height="100" version="1.1" viewBox="0 0 100 100"><title>100-圆角</title><defs><linearGradient id="linearGradient-1" x1="-15.15%" x2="50%" y1="-31.496%" y2="100%"><stop offset="0%" stop-color="#07FFFE"/><stop offset="100%" stop-color="#2C4CFC"/></linearGradient></defs><g id="LOGO" fill="none" fill-rule="evenodd" stroke="none" stroke-width="1"><g id="100-圆角"><g id="控件1024-圆角"><g id="渐变-圆角"><path id="矩形" fill="url(#linearGradient-1)" d="M15.625,0 L84.375,0 C93.0044492,0 100,6.99555078 100,15.625 L100,84.375 C100,93.0044492 93.0044492,100 84.375,100 L15.625,100 C6.99555078,100 0,93.0044492 0,84.375 L0,15.625 C0,6.99555078 6.99555078,0 15.625,0 Z"/><g id="yiToken-logo设计_彩色"><rect id="矩形" width="100" height="100" x="0" y="0"/><path id="形状结合" fill="#FFF" fill-rule="nonzero" d="M71.8750122,37.4999941 L71.8750122,68.75 C71.8774202,70.8684275 71.5201291,72.9718884 70.8183594,74.9707031 L70.8183594,74.9707031 L70.8076172,74.9999941 C68.1571438,82.4922815 61.072282,87.5006336 53.1249907,87.4999941 L53.1249907,87.4999941 L53.1249907,56.25 C53.1228935,54.1315164 53.4805152,52.028054 54.1826172,50.0292969 L54.1826172,50.0292969 L54.3094712,49.6790525 C57.0414027,42.3625697 64.0390356,37.4938267 71.8750122,37.4999941 L71.8750122,37.4999941 Z M28.124997,21.8749926 C33.0991598,21.8705899 37.8708585,23.8446145 41.388122,27.361878 C44.9053855,30.8791415 46.8794101,35.6508402 46.8750074,40.625 L46.8750074,59.3750236 C43.583425,59.3802305 40.3490343,58.514694 37.5,56.8662109 C37.2568359,56.7255859 37.0166016,56.5800781 36.78125,56.4287109 C31.3856978,52.9853111 28.1214091,47.025701 28.124997,40.625 L28.124997,21.8749926 Z M62.5,12.5126953 C67.6776695,12.5126953 71.875,16.7100258 71.875,21.8876953 C71.875,27.0653648 67.6776695,31.2626953 62.5,31.2626953 C57.3223305,31.2626953 53.125,27.0653648 53.125,21.8876953 C53.125,16.7100258 57.3223305,12.5126953 62.5,12.5126953 Z"/></g></g></g></g></g></svg>