<svg xmlns="http://www.w3.org/2000/svg" xmlns:svg="http://www.w3.org/2000/svg" xmlns:xlink="http://www.w3.org/1999/xlink" id="Layer_1" width="100" height="100" data-name="Layer 1" version="1.1" viewBox="-59.379 -106.329 100 100"><metadata id="metadata66"/><defs id="defs35"><linearGradient id="linear-gradient" x1="356.08" x2="79.98" y1="587.72" y2="587.72" gradientTransform="translate(0.2,-426.32)" gradientUnits="userSpaceOnUse"><stop id="stop2" offset="0" stop-color="#4171f7"/><stop id="stop4" offset="1" stop-color="#f74bda"/></linearGradient><linearGradient id="linear-gradient-2" x1="97.56" x2="184.1" y1="659.11" y2="606.57" gradientTransform="translate(0.2,-426.32)" gradientUnits="userSpaceOnUse"><stop id="stop7" offset="0" stop-color="#f14cdb" stop-opacity=".03"/><stop id="stop9" offset="0" stop-color="#fff" stop-opacity="0"/><stop id="stop11" offset="1" stop-color="#fff" stop-opacity=".4"/></linearGradient><linearGradient id="linear-gradient-3" x1="230.55" x2="340.79" y1="599.05" y2="654.69" gradientTransform="translate(0.2,-426.32)" gradientUnits="userSpaceOnUse"><stop id="stop14" offset="0" stop-color="#231f20" stop-opacity=".4"/><stop id="stop16" offset="1" stop-color="#231f20" stop-opacity="0"/></linearGradient><linearGradient id="linear-gradient-4" x1="274.82" x2="301.98" y1="604.49" y2="739.5" gradientTransform="translate(0.2,-426.32)" gradientUnits="userSpaceOnUse"><stop id="stop19" offset="0" stop-color="#eae8fc"/><stop id="stop21" offset=".52" stop-color="#f7f7fe"/><stop id="stop23" offset="1" stop-color="#fff"/></linearGradient><linearGradient id="linear-gradient-5" x1="401.93" x2="375.49" y1="629.2" y2="739.86" gradientTransform="translate(0.2,-426.32)" gradientUnits="userSpaceOnUse"><stop id="stop26" offset="0" stop-color="#dad4f4"/><stop id="stop28" offset=".65" stop-color="#f1effb"/><stop id="stop30" offset="1" stop-color="#fff"/></linearGradient><linearGradient id="linear-gradient-6" x1="32.22" x2="59.38" y1="604.49" y2="739.5" xlink:href="#linear-gradient-4"/><linearGradient id="linear-gradient-7" x1="159.33" x2="132.9" y1="629.2" y2="739.86" xlink:href="#linear-gradient-5"/><linearGradient id="linearGradient891" x1="401.93" x2="375.49" y1="629.2" y2="739.86" gradientTransform="translate(0.2,-426.32)" gradientUnits="userSpaceOnUse" xlink:href="#linear-gradient-5"/><linearGradient id="linearGradient893" x1="274.82" x2="301.98" y1="604.49" y2="739.5" gradientTransform="translate(0.2,-426.32)" gradientUnits="userSpaceOnUse" xlink:href="#linear-gradient-4"/></defs><circle style="fill:#01060d;stroke-width:.179805" id="circle37" cx="-9.379" cy="-56.328" r="50"/><g id="g49" transform="matrix(0.17980501,0,0,0.17980501,-48.701856,-87.210011)"><polygon id="polygon39" fill="url(#linear-gradient)" points="218.6 .9 79.6 81.1 79.6 241.6 218.6 321.9 357.6 241.6 357.6 81.1" style="fill:url(#linear-gradient)"/><polygon style="isolation:isolate;fill:url(#linear-gradient-2)" id="polygon41" fill="url(#linear-gradient-2)" points="218.5 161.7 79.6 81.5 79.6 241.6 218.5 321.8" opacity=".56"/><polygon style="isolation:isolate;fill:url(#linear-gradient-3)" id="polygon43" fill="url(#linear-gradient-3)" points="357.6 241.6 357.6 81.5 357.5 81.4 218.5 161.7 218.5 321.8 218.6 321.9" opacity=".56"/><polygon id="polygon45" fill="#fff" points="242.6 287.2 340 343.5 437.4 287.2 437.4 174.8 340 118.6 242.6 174.8"/><polygon id="polygon47" fill="#fff" points="0 287.2 97.4 343.5 194.8 287.2 194.8 174.8 97.4 118.6 0 174.8"/></g><polygon id="polygon51" fill="#fff" points="340 231 242.6 174.8 340 118.6 437.4 174.8" transform="matrix(0.17980501,0,0,0.17980501,-48.701856,-87.210011)"/><polygon id="polygon53" fill="url(#linear-gradient-4)" points="340 343.5 242.6 287.2 242.6 174.8 340 231" transform="matrix(0.17980501,0,0,0.17980501,-48.701856,-87.210011)" style="fill:url(#linearGradient893)"/><polygon id="polygon55" fill="url(#linear-gradient-5)" points="437.4 287.2 340 343.5 340 231 437.4 174.8" transform="matrix(0.17980501,0,0,0.17980501,-48.701856,-87.210011)" style="fill:url(#linearGradient891)"/><polygon id="polygon57" fill="#fff" points="97.4 231 0 174.8 97.4 118.6 194.8 174.8" transform="matrix(0.17980501,0,0,0.17980501,-48.701856,-87.210011)"/><polygon id="polygon59" fill="url(#linear-gradient-6)" points="97.4 343.5 0 287.2 0 174.8 97.4 231" transform="matrix(0.17980501,0,0,0.17980501,-48.701856,-87.210011)" style="fill:url(#linear-gradient-6)"/><polygon id="polygon61" fill="url(#linear-gradient-7)" points="194.8 287.2 97.4 343.5 97.4 231 194.8 174.8" transform="matrix(0.17980501,0,0,0.17980501,-48.701856,-87.210011)" style="fill:url(#linear-gradient-7)"/></svg>